<svg xmlns="http://www.w3.org/2000/svg" viewBox="0 0 900 600" role="img" aria-labelledby="title desc">
  <title id="title">Restaurant technology systems visual</title>
  <desc id="desc">Abstract restaurant technology operations board with point of sale, local search, and network signals.</desc>
  <defs>
    <linearGradient id="bg" x1="0" y1="0" x2="1" y2="1"><stop stop-color="#061426"/><stop offset="1" stop-color="#0a1f3d"/></linearGradient>
    <pattern id="grid" width="40" height="40" patternUnits="userSpaceOnUse"><path d="M40 0H0v40" fill="none" stroke="#174164" opacity=".34"/></pattern>
  </defs>
  <rect width="900" height="600" rx="28" fill="url(#bg)"/>
  <rect width="900" height="600" rx="28" fill="url(#grid)"/>
  <text x="58" y="82" fill="#ffffff" font-family="Inter, Arial, sans-serif" font-size="36" font-weight="700">Restaurant Tech</text>
  <text x="58" y="114" fill="#94a3b8" font-family="JetBrains Mono, monospace" font-size="17">web / local SEO / operations handoff</text>
  <g transform="translate(98 178)">
    <rect width="704" height="286" rx="24" fill="#0b2542" stroke="#2b638e" stroke-width="3"/>
    <rect x="38" y="44" width="188" height="152" rx="18" fill="#091f38" stroke="#245178" stroke-width="2"/>
    <rect x="270" y="44" width="170" height="88" rx="18" fill="#091f38" stroke="#245178" stroke-width="2"/>
    <rect x="270" y="164" width="170" height="84" rx="18" fill="#091f38" stroke="#245178" stroke-width="2"/>
    <rect x="482" y="44" width="184" height="204" rx="18" fill="#091f38" stroke="#245178" stroke-width="2"/>
    <g stroke="#00b4d8" stroke-width="8" stroke-linecap="round"><path d="M72 92h118M72 136h82M306 86h98M306 208h86M518 92h112M518 138h72M518 184h132"/></g>
    <g fill="#10b981"><circle cx="72" cy="230" r="10"/><circle cx="110" cy="230" r="10"/><circle cx="148" cy="230" r="10"/></g>
  </g>
</svg>
